<svg xmlns="http://www.w3.org/2000/svg" viewBox="0 0 400 400" width="400" height="400">
  <defs>
    <linearGradient id="fireGrad" x1="0%" y1="100%" x2="0%" y2="0%">
      <stop offset="0%" stop-color="#ff4500">
        <animate attributeName="stop-color" values="#ff4500;#ff6600;#ff4500" dur="0.8s" repeatCount="indefinite"/>
      </stop>
      <stop offset="40%" stop-color="#ff8c00">
        <animate attributeName="stop-color" values="#ff8c00;#ffaa00;#ff8c00" dur="0.6s" repeatCount="indefinite"/>
      </stop>
      <stop offset="70%" stop-color="#ffd700">
        <animate attributeName="stop-color" values="#ffd700;#ffee00;#ffd700" dur="0.5s" repeatCount="indefinite"/>
      </stop>
      <stop offset="100%" stop-color="#fffacd">
        <animate attributeName="stop-color" values="#fffacd;#ffffff;#fffacd" dur="0.4s" repeatCount="indefinite"/>
      </stop>
    </linearGradient>
    <radialGradient id="glowGrad" cx="50%" cy="50%" r="50%">
      <stop offset="0%" stop-color="#ff6600" stop-opacity="0.8"/>
      <stop offset="50%" stop-color="#ff4500" stop-opacity="0.3"/>
      <stop offset="100%" stop-color="#8b0000" stop-opacity="0"/>
    </radialGradient>
    <filter id="fireGlow" x="-50%" y="-50%" width="200%" height="200%">
      <feGaussianBlur in="SourceGraphic" stdDeviation="4" result="blur"/>
      <feColorMatrix in="blur" type="matrix" values="1 0 0 0 0.3  0 0.5 0 0 0  0 0 0.2 0 0  0 0 0 1 0" result="glow"/>
      <feMerge>
        <feMergeNode in="glow"/>
        <feMergeNode in="SourceGraphic"/>
      </feMerge>
    </filter>
    <filter id="flicker">
      <feTurbulence type="fractalNoise" baseFrequency="0.02" numOctaves="3" result="noise">
        <animate attributeName="baseFrequency" values="0.02;0.03;0.02" dur="0.3s" repeatCount="indefinite"/>
      </feTurbulence>
      <feDisplacementMap in="SourceGraphic" in2="noise" scale="2" xChannelSelector="R" yChannelSelector="G"/>
    </filter>
  </defs>
  <circle cx="200" cy="200" r="150" fill="url(#glowGrad)">
    <animate attributeName="r" values="140;155;140" dur="1.5s" repeatCount="indefinite"/>
  </circle>
  <g transform="translate(200, 200)" filter="url(#fireGlow)">
    <g filter="url(#flicker)">
      <g transform="rotate(0)">
        <path d="M0,-30 L-20,-100 L-8,-100 L0,-65 L8,-100 L20,-100 L0,-30" fill="url(#fireGrad)">
          <animate attributeName="d" 
            values="M0,-30 L-20,-100 L-8,-100 L0,-65 L8,-100 L20,-100 L0,-30;
                    M0,-30 L-22,-102 L-8,-102 L0,-67 L8,-102 L22,-102 L0,-30;
                    M0,-30 L-20,-100 L-8,-100 L0,-65 L8,-100 L20,-100 L0,-30" 
            dur="0.4s" repeatCount="indefinite"/>
        </path>
      </g>
      <g transform="rotate(60)">
        <path d="M0,-30 L-20,-100 L-8,-100 L0,-65 L8,-100 L20,-100 L0,-30" fill="url(#fireGrad)">
          <animate attributeName="d" 
            values="M0,-30 L-20,-100 L-8,-100 L0,-65 L8,-100 L20,-100 L0,-30;
                    M0,-30 L-21,-101 L-8,-101 L0,-66 L8,-101 L21,-101 L0,-30;
                    M0,-30 L-20,-100 L-8,-100 L0,-65 L8,-100 L20,-100 L0,-30" 
            dur="0.45s" repeatCount="indefinite"/>
        </path>
      </g>
      <g transform="rotate(120)">
        <path d="M0,-30 L-20,-100 L-8,-100 L0,-65 L8,-100 L20,-100 L0,-30" fill="url(#fireGrad)">
          <animate attributeName="d" 
            values="M0,-30 L-20,-100 L-8,-100 L0,-65 L8,-100 L20,-100 L0,-30;
                    M0,-30 L-22,-103 L-8,-103 L0,-68 L8,-103 L22,-103 L0,-30;
                    M0,-30 L-20,-100 L-8,-100 L0,-65 L8,-100 L20,-100 L0,-30" 
            dur="0.42s" repeatCount="indefinite"/>
        </path>
      </g>
      <g transform="rotate(180)">
        <path d="M0,-30 L-20,-100 L-8,-100 L0,-65 L8,-100 L20,-100 L0,-30" fill="url(#fireGrad)">
          <animate attributeName="d" 
            values="M0,-30 L-20,-100 L-8,-100 L0,-65 L8,-100 L20,-100 L0,-30;
                    M0,-30 L-21,-102 L-8,-102 L0,-67 L8,-102 L21,-102 L0,-30;
                    M0,-30 L-20,-100 L-8,-100 L0,-65 L8,-100 L20,-100 L0,-30" 
            dur="0.38s" repeatCount="indefinite"/>
        </path>
      </g>
      <g transform="rotate(240)">
        <path d="M0,-30 L-20,-100 L-8,-100 L0,-65 L8,-100 L20,-100 L0,-30" fill="url(#fireGrad)">
          <animate attributeName="d" 
            values="M0,-30 L-20,-100 L-8,-100 L0,-65 L8,-100 L20,-100 L0,-30;
                    M0,-30 L-22,-101 L-8,-101 L0,-66 L8,-101 L22,-101 L0,-30;
                    M0,-30 L-20,-100 L-8,-100 L0,-65 L8,-100 L20,-100 L0,-30" 
            dur="0.43s" repeatCount="indefinite"/>
        </path>
      </g>
      <g transform="rotate(300)">
        <path d="M0,-30 L-20,-100 L-8,-100 L0,-65 L8,-100 L20,-100 L0,-30" fill="url(#fireGrad)">
          <animate attributeName="d" 
            values="M0,-30 L-20,-100 L-8,-100 L0,-65 L8,-100 L20,-100 L0,-30;
                    M0,-30 L-21,-103 L-8,-103 L0,-68 L8,-103 L21,-103 L0,-30;
                    M0,-30 L-20,-100 L-8,-100 L0,-65 L8,-100 L20,-100 L0,-30" 
            dur="0.41s" repeatCount="indefinite"/>
        </path>
      </g>
    </g>
    <g>
      <circle r="2" fill="#ffcc00">
        <animate attributeName="cx" values="0;30;60" dur="2s" repeatCount="indefinite"/>
        <animate attributeName="cy" values="0;-50;-120" dur="2s" repeatCount="indefinite"/>
        <animate attributeName="opacity" values="1;0.5;0" dur="2s" repeatCount="indefinite"/>
        <animate attributeName="r" values="2;1.5;0.5" dur="2s" repeatCount="indefinite"/>
      </circle>
      <circle r="1.5" fill="#ff9900">
        <animate attributeName="cx" values="0;-25;-40" dur="1.8s" repeatCount="indefinite" begin="0.3s"/>
        <animate attributeName="cy" values="0;-45;-100" dur="1.8s" repeatCount="indefinite" begin="0.3s"/>
        <animate attributeName="opacity" values="1;0.5;0" dur="1.8s" repeatCount="indefinite" begin="0.3s"/>
        <animate attributeName="r" values="1.5;1;0.3" dur="1.8s" repeatCount="indefinite" begin="0.3s"/>
      </circle>
      <circle r="1.8" fill="#ffdd00">
        <animate attributeName="cx" values="0;15;25" dur="2.2s" repeatCount="indefinite" begin="0.6s"/>
        <animate attributeName="cy" values="0;-60;-130" dur="2.2s" repeatCount="indefinite" begin="0.6s"/>
        <animate attributeName="opacity" values="1;0.5;0" dur="2.2s" repeatCount="indefinite" begin="0.6s"/>
        <animate attributeName="r" values="1.8;1.2;0.4" dur="2.2s" repeatCount="indefinite" begin="0.6s"/>
      </circle>
      <circle r="1.2" fill="#ff6600">
        <animate attributeName="cx" values="0;-40;-70" dur="2.5s" repeatCount="indefinite" begin="0.9s"/>
        <animate attributeName="cy" values="0;-40;-90" dur="2.5s" repeatCount="indefinite" begin="0.9s"/>
        <animate attributeName="opacity" values="1;0.5;0" dur="2.5s" repeatCount="indefinite" begin="0.9s"/>
        <animate attributeName="r" values="1.2;0.8;0.2" dur="2.5s" repeatCount="indefinite" begin="0.9s"/>
      </circle>
      <circle r="1.6" fill="#ffaa00">
        <animate attributeName="cx" values="0;50;80" dur="2.3s" repeatCount="indefinite" begin="1.2s"/>
        <animate attributeName="cy" values="0;-55;-110" dur="2.3s" repeatCount="indefinite" begin="1.2s"/>
        <animate attributeName="opacity" values="1;0.5;0" dur="2.3s" repeatCount="indefinite" begin="1.2s"/>
        <animate attributeName="r" values="1.6;1;0.3" dur="2.3s" repeatCount="indefinite" begin="1.2s"/>
      </circle>
    </g>
  </g>
  <g transform="translate(200, 200)">
    <polygon points="0,-38 33,-19 33,19 0,38 -33,19 -33,-19" fill="url(#fireGrad)" stroke="#fff8dc" stroke-width="2">
      <animate attributeName="stroke-opacity" values="0.8;1;0.8" dur="0.5s" repeatCount="indefinite"/>
    </polygon>
  </g>
  <g transform="translate(200, 200)">
    <g transform="translate(-25, -25) scale(0.174)">
      <path
         d="m 8.9271006,226.07593 c -0.0387,-0.0626 6.2795794,-6.46381 14.0407394,-14.22467 11.89784,-11.89741 14.16435,-14.10317 14.45003,-14.06279 0.24105,0.034 0.35014,0.14935 0.37805,0.39964 0.0332,0.29829 -1.96287,2.35321 -13.12146,13.50813 -7.23838,7.23601 -13.160689,13.23565 -13.160689,13.33254 0,0.14043 5.242939,0.17616 25.856099,0.17616 h 25.8561 l 26.98094,-26.98165 26.98097,-26.98166 0.0357,-12.24201 0.0357,-12.24199 h 0.42214 0.42213 l 0.036,12.52253 0.036,12.52252 -27.19336,27.19362 -27.19336,27.19364 H 36.39316 c -15.0676,0 -27.4273394,-0.0513 -27.4660894,-0.11401 z m 60.2248894,0 c -0.0388,-0.0627 2.60706,-2.79132 5.87973,-6.06331 4.97333,-4.97229 6.0059,-5.94121 6.28882,-5.90125 0.24068,0.034 0.34989,0.14951 0.37791,0.39964 0.0331,0.2951 -0.76605,1.15639 -4.96014,5.34632 -2.74972,2.74701 -4.9995,5.07404 -4.9995,5.17119 0,0.13966 1.70086,0.17665 8.1264,0.17665 h 8.12642 l 14.52484,-14.5286 14.52483,-14.52859 0.0388,-1.54783 0.0386,-1.54784 h 0.42214 0.42212 l 0.0397,1.82457 0.0397,1.82459 -14.74383,14.74413 -14.74384,14.74434 h -9.66593 c -5.31627,0 -9.69771,-0.0514 -9.73654,-0.11421 z m 46.96537,-0.0886 c -0.0429,-0.11156 -0.0558,-0.31734 -0.0288,-0.45729 0.0466,-0.24218 0.52337,-0.25621 9.86179,-0.29061 7.73246,-0.0285 9.81278,-0.0733 9.81278,-0.21186 0,-0.0967 -2.09148,-2.26496 -4.64773,-4.81846 -3.89392,-3.88972 -4.64135,-4.69978 -4.60835,-4.9945 0.0281,-0.25008 0.13725,-0.3656 0.37789,-0.39963 0.28264,-0.0399 1.26217,0.87567 5.93706,5.54946 3.07921,3.07851 5.56681,5.64868 5.52797,5.71151 -0.0389,0.0628 -5.03952,0.11425 -11.11265,0.11425 -9.48651,0 -11.05305,-0.0284 -11.11992,-0.20287 z m 48.82728,0 c -0.0427,-0.11156 -0.0559,-0.31734 -0.0287,-0.45729 0.0465,-0.24218 0.52339,-0.25621 9.86183,-0.29061 7.73246,-0.0285 9.81278,-0.0733 9.81278,-0.21186 0,-0.0967 -2.09149,-2.26496 -4.64776,-4.81846 -3.89389,-3.88972 -4.64134,-4.69978 -4.60833,-4.9945 0.028,-0.25008 0.13724,-0.3656 0.37787,-0.39963 0.28264,-0.0399 1.2622,0.87567 5.93708,5.54946 3.0792,3.07851 5.56679,5.64868 5.52797,5.71151 -0.0389,0.0628 -5.03955,0.11425 -11.11267,0.11425 -9.4865,0 -11.05302,-0.0284 -11.1199,-0.20287 z m 23.81882,-7.79573 c -6.71053,-6.7113 -7.98995,-8.05306 -7.9498,-8.33722 0.034,-0.24083 0.14944,-0.34998 0.39964,-0.37793 0.29697,-0.0332 1.57947,1.18913 8.23122,7.84474 l 7.87944,7.88403 h 8.05627 c 6.35885,0 8.05624,-0.037 8.05624,-0.17621 0,-0.0969 -5.32073,-5.49503 -11.8239,-11.99577 -10.01783,-10.01409 -11.81793,-11.87327 -11.78469,-12.17134 0.0279,-0.25025 0.13701,-0.36559 0.37804,-0.39963 0.28547,-0.0404 2.34966,1.96286 13.11327,12.72601 7.02595,7.02564 12.74277,12.82519 12.70397,12.88791 -0.0387,0.0626 -4.38856,0.11401 -9.66623,0.11401 h -9.59583 z m 18.57427,-6.19118 c -11.96407,-11.96448 -14.18175,-14.24289 -14.14137,-14.52856 0.034,-0.24107 0.14938,-0.35015 0.39964,-0.37804 0.2984,-0.0333 2.48734,2.09698 14.42276,14.03608 l 14.07102,14.07532 h 25.78586 c 20.54116,0 25.78586,-0.0357 25.78586,-0.17599 0,-0.0968 -20.92925,-21.10343 -46.5095,-46.68143 -39.6181,-39.61486 -46.50373,-46.5578 -46.47037,-46.85745 0.1218,-1.09419 -1.99924,-3.16396 48.177,47.01213 26.10295,26.10285 47.42823,47.51098 47.38947,47.57361 -0.0387,0.0626 -12.36679,0.1139 -27.39575,0.1139 H 221.52696 L 207.33773,212.00023 Z M 98.28093,225.9498 c -0.11154,-0.11156 19.60055,-19.88173 19.8233,-19.88173 0.18452,0 7.80899,7.62654 7.80899,7.81111 0,0.0772 -2.70726,2.84707 -6.0161,6.15524 l -6.01605,6.01484 h -7.75033 c -4.26268,0 -7.79508,-0.0447 -7.84981,-0.0995 z m 48.8273,0 c -0.11153,-0.11156 19.60054,-19.88173 19.82332,-19.88173 0.1845,0 7.80896,7.62654 7.80896,7.81111 0,0.0772 -2.70724,2.84707 -6.01609,6.15524 l -6.01606,6.01484 h -7.75033 c -4.26267,0 -7.79507,-0.0447 -7.8498,-0.0995 z m -11.47203,-8.2591 c -4.7335,-4.73458 -5.65975,-5.72473 -5.61982,-6.00742 0.0339,-0.24065 0.14952,-0.34987 0.39963,-0.37788 0.29481,-0.0332 1.1151,0.72474 5.06487,4.6787 2.59218,2.59494 4.79258,4.71809 4.88976,4.71809 0.14138,0 0.17668,-8.08185 0.17668,-40.42075 v -40.42076 l -3.59248,-3.58715 c -2.99346,-2.989 -3.58589,-3.64579 -3.55299,-3.9389 0.0281,-0.24999 0.13737,-0.36562 0.37766,-0.39959 0.28005,-0.0395 0.97545,0.58914 4.04549,3.65754 l 3.70731,3.70532 v 41.96026 c 0,23.07812 -0.0513,41.99203 -0.11424,42.03086 -0.0627,0.0389 -2.66467,-2.48041 -5.78187,-5.59832 z m 8.08248,5.5375 c -0.0429,-0.11234 -0.0616,-5.90311 -0.0416,-12.86839 l 0.0365,-12.66414 h 0.42213 0.42213 l 0.0361,11.50326 c 0.0285,9.07509 0.0731,11.50326 0.21152,11.50326 0.0965,0 4.24361,-4.06854 9.21583,-9.0412 l 9.04039,-9.04121 v -35.49434 c 0,-28.36129 -0.0354,-35.4944 -0.17643,-35.4944 -0.0971,0 -3.1681,2.99217 -6.82458,6.64924 l -6.64812,6.64922 v 22.7259 22.72591 l -2.71525,2.71257 c -1.49337,1.49191 -2.7598,2.66801 -2.81426,2.61356 -0.0545,-0.0545 -0.099,-12.73694 -0.099,-28.18329 v -28.0843 l 10.03175,-10.03109 c 5.51748,-5.51711 10.07659,-9.98631 10.13131,-9.9316 0.0547,0.0547 0.0995,18.91117 0.0995,41.90326 v 41.80376 l -10.12486,10.12411 c -6.81025,6.80978 -10.15037,10.05726 -10.2028,9.91989 z M 82.66056,212.84902 c -0.0958,-0.15498 35.00705,-35.24225 35.13245,-35.11687 0.0548,0.0549 0.0996,3.17606 0.0996,6.93622 v 6.83662 l -10.72969,10.72902 -10.72968,10.72897 h -6.8511 c -3.76811,0 -6.8828,-0.0513 -6.92155,-0.11396 z m 42.30183,-6.11353 -3.69272,-3.6947 v -41.67686 c 0,-22.92225 0.0504,-41.70796 0.11191,-41.74601 0.0616,-0.038 2.62602,2.44035 5.69885,5.50754 l 5.58699,5.57671 v 38.00149 38.00152 l -1.86634,1.86249 c -1.02648,1.02439 -1.92925,1.86248 -2.00615,1.86248 -0.0769,0 -1.80155,-1.6626 -3.83254,-3.69466 z m 48.26484,-4.36174 -5.9445,-5.94571 v -9.29821 c 0,-5.11398 0.0447,-9.34292 0.0995,-9.39765 0.11149,-0.11149 21.28883,21.00764 21.28883,21.23031 0,0.18453 -9.17423,9.35694 -9.35881,9.35694 -0.0772,0 -2.81554,-2.67557 -6.08502,-5.94572 z M 39.3211,195.96353 c -0.0387,-0.0627 17.5542,-17.7384 39.09536,-39.27946 28.70765,-28.70752 39.22615,-39.14237 39.39199,-39.07873 0.20605,0.0791 0.22305,1.29728 0.19036,13.63456 l -0.0359,13.54774 -5.34887,0.0368 -5.34886,0.0369 -25.60779,25.60808 -25.60777,25.60807 h -8.32904 c -4.58099,0 -8.36074,-0.0513 -8.39946,-0.1139 z m 140.02744,-12.23395 -12.20653,-12.20713 v -26.91542 c 0,-24.54309 0.0198,-26.92302 0.22516,-27.00181 0.16297,-0.0626 1.81454,1.50262 5.9803,5.66745 l 5.75512,5.75386 v 16.46435 16.46435 l 11.68161,11.67886 c 6.42487,6.42333 11.66465,11.74214 11.64397,11.81952 -0.0594,0.22251 -10.55409,10.48308 -10.72218,10.48308 -0.083,0 -5.64386,-5.49319 -12.35745,-12.20711 z m -40.74962,-48.77024 c -3.0684,-3.07005 -3.69713,-3.76545 -3.65754,-4.0455 0.0339,-0.2403 0.14961,-0.34961 0.39957,-0.37769 0.29269,-0.0329 0.91892,0.52857 3.7278,3.34194 1.85679,1.85977 3.44,3.38142 3.5182,3.38142 0.20653,0 18.78584,-18.61237 18.78584,-18.8193 0,-0.13515 -1.42264,-0.18223 -6.36724,-0.21065 l -6.36726,-0.0366 v -0.42214 -0.42214 l 7.52813,-0.0366 c 4.14047,-0.02 7.62006,-0.002 7.73239,0.0416 0.28384,0.10867 -20.91929,21.31291 -21.3118,21.31291 -0.18232,0 -1.59924,-1.31718 -3.98809,-3.70732 z M 127.4197,123.63938 c -3.31124,-3.31189 -5.97569,-6.06634 -5.92105,-6.12099 0.0547,-0.0546 5.46052,-0.0994 12.01304,-0.0994 6.55251,0 11.95838,0.0447 12.01303,0.0994 0.0885,0.0885 -11.83694,12.14263 -12.01303,12.14263 -0.0393,0 -2.78078,-2.70972 -6.09199,-6.02164 z m -14.00806,-13.86732 c -4.74032,-4.74139 -5.6678,-5.73277 -5.62785,-6.01547 0.034,-0.24065 0.1495,-0.34987 0.39961,-0.37784 0.29562,-0.0332 1.23897,0.8486 5.90926,5.52299 l 5.55749,5.56231 h 23.0073 23.00732 l 30.56972,-30.569965 c 16.81335,-16.81347 30.56969,-30.648652 30.56969,-30.744842 0,-0.137534 -2.29173,-0.182594 -10.72935,-0.210947 l -10.72934,-0.03605 V 52.480108 52.05797 l 11.89023,-0.03633 c 6.53962,-0.02001 11.9822,-0.0012 12.09465,0.04173 0.13706,0.05233 -10.22721,10.509755 -31.44914,31.731865 l -31.6536,31.653805 H 142.65747 119.08731 Z M 80.86251,77.083875 C 67.19848,63.422449 56.08901,52.218142 56.1748,52.185422 c 0.0858,-0.03272 5.06332,-0.04314 11.0612,-0.02314 l 10.90524,0.03638 0.0371,4.364318 0.0372,4.364318 13.85824,13.857707 13.85825,13.85774 v 6.57029 c 0,3.61365 -0.0508,6.601685 -0.11291,6.640065 -0.0621,0.0385 -11.29256,-11.107765 -24.95659,-24.769225 z M 120.21544,68.874935 104.316,52.974323 93.55037,52.938273 82.78475,52.902223 V 52.48008 52.057942 l 11.04486,-0.03605 11.04486,-0.03605 15.90162,15.900393 15.90164,15.90038 6.68383,0.0362 6.68385,0.0362 v 0.42214 0.42214 l -6.96528,0.0361 -6.96524,0.0361 z m 34.82528,15.5819 c 0,-0.0969 7.26615,-7.44207 16.14702,-16.32268 l 16.147,-16.146548 h 7.75071 c 4.26287,0 7.79549,0.04481 7.85024,0.09955 0.0549,0.05476 -7.20062,7.399962 -16.12309,16.322678 l -16.22267,16.22311 h -7.77459 c -6.13128,0 -7.77462,-0.0372 -7.77462,-0.17611 z"
         style="fill:#0f0f23;stroke-width:0.14071268" />
    </g>
  </g>
</svg>
